solid D:\work\code\DevelopmentCode\PDVReader\test\output\Node_251546254079180800\red (red.2).stl
   facet normal 0 -1 0
      outer loop
         vertex 200 0 0
         vertex 300 0 0
         vertex 200 0 100
      endloop
   endfacet
   facet normal 0 -1 0
      outer loop
         vertex 300 0 0
         vertex 300 0 100
         vertex 200 0 100
      endloop
   endfacet
   facet normal 1 0 0
      outer loop
         vertex 300 0 0
         vertex 300 100 0
         vertex 300 0 100
      endloop
   endfacet
   facet normal 1 0 0
      outer loop
         vertex 300 100 0
         vertex 300 100 100
         vertex 300 0 100
      endloop
   endfacet
   facet normal 0 1 0
      outer loop
         vertex 300 100 0
         vertex 200 100 0
         vertex 300 100 100
      endloop
   endfacet
   facet normal 0 1 0
      outer loop
         vertex 200 100 0
         vertex 200 100 100
         vertex 300 100 100
      endloop
   endfacet
   facet normal -1 0 0
      outer loop
         vertex 200 100 0
         vertex 200 0 0
         vertex 200 100 100
      endloop
   endfacet
   facet normal -1 0 0
      outer loop
         vertex 200 0 0
         vertex 200 0 100
         vertex 200 100 100
      endloop
   endfacet
   facet normal -0 -0 -1
      outer loop
         vertex 200 0 0
         vertex 200 100 0
         vertex 300 0 0
      endloop
   endfacet
   facet normal -0 -0 -1
      outer loop
         vertex 300 0 0
         vertex 200 100 0
         vertex 300 100 0
      endloop
   endfacet
   facet normal 0 0 1
      outer loop
         vertex 200 0 100
         vertex 300 0 100
         vertex 200 100 100
      endloop
   endfacet
   facet normal 0 0 1
      outer loop
         vertex 300 0 100
         vertex 300 100 100
         vertex 200 100 100
      endloop
   endfacet
endsolid
