solid D:\work\code\DevelopmentCode\PDVReader\test\output\Node_251546253433257984\red (red.1).stl
   facet normal 0 -1 0
      outer loop
         vertex 0 0 0
         vertex 100 0 0
         vertex 0 0 100
      endloop
   endfacet
   facet normal 0 -1 0
      outer loop
         vertex 100 0 0
         vertex 100 0 100
         vertex 0 0 100
      endloop
   endfacet
   facet normal 1 0 0
      outer loop
         vertex 100 0 0
         vertex 100 100 0
         vertex 100 0 100
      endloop
   endfacet
   facet normal 1 0 0
      outer loop
         vertex 100 100 0
         vertex 100 100 100
         vertex 100 0 100
      endloop
   endfacet
   facet normal 0 1 0
      outer loop
         vertex 100 100 0
         vertex 0 100 0
         vertex 100 100 100
      endloop
   endfacet
   facet normal 0 1 0
      outer loop
         vertex 0 100 0
         vertex 0 100 100
         vertex 100 100 100
      endloop
   endfacet
   facet normal -1 0 0
      outer loop
         vertex 0 100 0
         vertex 0 0 0
         vertex 0 100 100
      endloop
   endfacet
   facet normal -1 0 0
      outer loop
         vertex 0 0 0
         vertex 0 0 100
         vertex 0 100 100
      endloop
   endfacet
   facet normal -0 -0 -1
      outer loop
         vertex 0 0 0
         vertex 0 100 0
         vertex 100 0 0
      endloop
   endfacet
   facet normal -0 -0 -1
      outer loop
         vertex 100 0 0
         vertex 0 100 0
         vertex 100 100 0
      endloop
   endfacet
   facet normal 0 0 1
      outer loop
         vertex 0 0 100
         vertex 100 0 100
         vertex 0 100 100
      endloop
   endfacet
   facet normal 0 0 1
      outer loop
         vertex 100 0 100
         vertex 100 100 100
         vertex 0 100 100
      endloop
   endfacet
endsolid
