solid D:\work\code\DevelopmentCode\PDVReader\test\output\Node_251546254112735232\red (red.1).stl
   facet normal 0 -1 0
      outer loop
         vertex 0 200 0
         vertex 100 200 0
         vertex 0 200 100
      endloop
   endfacet
   facet normal 0 -1 0
      outer loop
         vertex 100 200 0
         vertex 100 200 100
         vertex 0 200 100
      endloop
   endfacet
   facet normal 1 0 0
      outer loop
         vertex 100 200 0
         vertex 100 300 0
         vertex 100 200 100
      endloop
   endfacet
   facet normal 1 0 0
      outer loop
         vertex 100 300 0
         vertex 100 300 100
         vertex 100 200 100
      endloop
   endfacet
   facet normal 0 1 0
      outer loop
         vertex 100 300 0
         vertex 0 300 0
         vertex 100 300 100
      endloop
   endfacet
   facet normal 0 1 0
      outer loop
         vertex 0 300 0
         vertex 0 300 100
         vertex 100 300 100
      endloop
   endfacet
   facet normal -1 0 0
      outer loop
         vertex 0 300 0
         vertex 0 200 0
         vertex 0 300 100
      endloop
   endfacet
   facet normal -1 0 0
      outer loop
         vertex 0 200 0
         vertex 0 200 100
         vertex 0 300 100
      endloop
   endfacet
   facet normal -0 -0 -1
      outer loop
         vertex 0 200 0
         vertex 0 300 0
         vertex 100 200 0
      endloop
   endfacet
   facet normal -0 -0 -1
      outer loop
         vertex 100 200 0
         vertex 0 300 0
         vertex 100 300 0
      endloop
   endfacet
   facet normal 0 0 1
      outer loop
         vertex 0 200 100
         vertex 100 200 100
         vertex 0 300 100
      endloop
   endfacet
   facet normal 0 0 1
      outer loop
         vertex 100 200 100
         vertex 100 300 100
         vertex 0 300 100
      endloop
   endfacet
endsolid
